# xmcd CD database file
#
# Track frame offsets:
#	150
#	12813
#	26798
#	38843
#	49540
#	61175
#	72948
#	83100
#	92705
#	102958
#	113993
#	122955
#	134093
#	144488
#	156053
#	166525
#	179520
#	190308
#
# Disc length: 2672 seconds
#
# Revision: 1
# Processed by: cddbd v1.4PL0 Copyright (c) Steve Scherf et al.
# Submitted via: CDex 1.40Beta9
#
DISCID=f30a6e12
DTITLE=The Stanley Brothers - Angel Band: The Classic Mercury Recordings
DYEAR=2001
DGENRE=Bluegrass
TTITLE0=(Say) Won't You Be Mine
TTITLE1=I Long To See The Old Folks
TTITLE2=This Weary Heart You Stole Away
TTITLE3=Memories Of Mother
TTITLE4=A Voice From On High
TTITLE5=Could You Love Me (One More Time)
TTITLE6=Blue Moon Of Kentucky
TTITLE7=Close By
TTITLE8=Just A Little Talk With Jesus
TTITLE9=I Worship You
TTITLE10=Daybreak In Dixie
TTITLE11=Tragic Love
TTITLE12=Calling From Heaven
TTITLE13=Life Of Sorrow
TTITLE14=Baby Girl
TTITLE15=Let Me Walk, Lord, By Your Side
TTITLE16=Will He Wait A Little Longer
TTITLE17=Angel Band
EXTD=YEAR: 2001 ID3G: 89
EXTT0=
EXTT1=
EXTT2=
EXTT3=
EXTT4=
EXTT5=
EXTT6=
EXTT7=
EXTT8=
EXTT9=
EXTT10=Instrumental
EXTT11=
EXTT12=
EXTT13=
EXTT14=
EXTT15=
EXTT16=
EXTT17=
PLAYORDER=
